<?xml version="1.0" standalone="no"?>
<!DOCTYPE svg PUBLIC "-//W3C//DTD SVG 20010904//EN"
 "http://www.w3.org/TR/2001/REC-SVG-20010904/DTD/svg10.dtd">
<svg version="1.0" xmlns="http://www.w3.org/2000/svg"
 width="564.000000pt" height="443.000000pt" viewBox="0 0 564.000000 443.000000"
 preserveAspectRatio="xMidYMid meet">

<g transform="translate(0.000000,443.000000) scale(0.100000,-0.100000)"
fill="#000000" stroke="none">
<path d="M3324 3491 c4 -6 20 -11 36 -11 16 0 32 -5 35 -11 4 -6 20 -8 38 -4
26 5 29 4 17 -5 -13 -10 -12 -11 4 -6 11 4 44 2 74 -5 29 -6 56 -9 58 -6 6 5
-148 41 -225 53 -31 4 -42 3 -37 -5z"/>
<path d="M2165 3479 c-109 -16 -270 -69 -420 -139 -119 -56 -179 -90 -171 -97
2 -2 22 7 45 21 22 14 43 26 45 26 3 0 43 18 88 41 101 49 225 92 240 83 6 -4
8 -3 5 3 -6 10 105 37 193 48 109 15 150 17 150 8 0 -5 -26 -17 -57 -26 -74
-23 -170 -60 -253 -99 -36 -17 -76 -35 -90 -40 -41 -15 -198 -107 -293 -170
-82 -54 -89 -58 -94 -39 -3 12 -12 21 -20 21 -10 0 -13 6 -9 16 3 8 2 13 -3
10 -5 -3 -14 1 -21 9 -10 12 -10 18 0 30 7 8 18 15 26 15 7 0 18 9 24 20 9 17
2 15 -39 -12 -57 -38 -90 -98 -96 -176 -1 -26 -6 -58 -10 -72 -5 -23 0 -30 43
-58 28 -18 52 -32 55 -32 8 0 35 88 43 137 8 53 26 64 224 143 217 86 384 135
563 166 31 5 35 8 22 18 -13 9 -14 19 -4 68 15 76 6 88 -70 87 -31 -1 -83 -5
-116 -10z m25 -114 c0 -1 -9 -5 -19 -8 -13 -3 -18 -1 -14 9 4 10 33 10 33 -1z
m-183 -69 c0 -8 -6 -12 -15 -9 -11 5 -11 7 0 14 7 5 13 9 14 9 0 0 1 -6 1 -14z
m-177 -81 c-7 -8 -17 -15 -23 -15 -6 0 -2 7 9 15 25 19 30 19 14 0z m-326
-142 c-4 -21 -13 -55 -20 -77 -8 -21 -14 -47 -14 -57 0 -11 -4 -19 -10 -19
-13 0 -12 13 6 85 9 33 18 70 21 83 9 38 24 25 17 -15z"/>
<path d="M3276 3471 c-15 -17 -17 -30 -11 -80 6 -57 6 -60 -17 -63 -12 -2 18
-12 67 -22 182 -36 412 -114 607 -204 46 -21 87 -39 92 -40 6 0 17 -32 27 -69
18 -74 35 -123 44 -123 3 0 40 15 81 32 l75 33 -7 35 c-4 19 -8 47 -8 62 -1
14 -4 24 -7 22 -9 -5 -20 26 -14 36 7 11 -32 80 -54 97 -66 51 -328 189 -339
179 -3 -3 9 -11 26 -17 18 -6 29 -16 25 -22 -3 -6 -1 -7 6 -3 12 8 182 -79
239 -122 l33 -25 -28 -22 c-15 -13 -34 -20 -43 -17 -8 3 -12 1 -7 -3 4 -5 -5
-16 -19 -26 -25 -16 -29 -16 -53 -1 -14 8 -30 20 -36 26 -10 11 -56 42 -120
81 -98 61 -311 156 -457 206 -94 31 -97 33 -81 51 9 10 12 18 6 18 -5 0 -18
-9 -27 -19z m59 -97 c3 -25 4 -49 0 -52 -9 -9 -25 19 -25 45 0 12 -3 28 -6 37
-4 10 -1 16 9 16 10 0 17 -15 22 -46z m185 -48 c-7 -7 -13 -7 -20 0 -6 6 -3
10 10 10 13 0 16 -4 10 -10z m-35 -26 c3 -6 -1 -7 -9 -4 -18 7 -21 14 -7 14 6
0 13 -4 16 -10z m130 -10 c-3 -5 -14 -10 -23 -9 -14 0 -13 2 3 9 27 11 27 11
20 0z m524 -255 c23 -93 25 -115 12 -115 -5 0 -12 21 -16 46 -3 25 -13 64 -21
86 -16 46 -18 68 -5 68 5 0 18 -38 30 -85z"/>
<path d="M3670 3416 c0 -3 24 -12 53 -22 82 -27 86 -27 28 1 -49 23 -81 31
-81 21z"/>
<path d="M2608 3353 c7 -3 16 -2 19 1 4 3 -2 6 -13 5 -11 0 -14 -3 -6 -6z"/>
<path d="M2973 3353 c9 -2 23 -2 30 0 6 3 -1 5 -18 5 -16 0 -22 -2 -12 -5z"/>
<path d="M1780 3269 c0 -5 5 -7 10 -4 6 3 10 8 10 11 0 2 -4 4 -10 4 -5 0 -10
-5 -10 -11z"/>
<path d="M1390 3019 c-6 -11 -10 -25 -7 -32 2 -6 9 3 15 21 12 36 8 42 -8 11z"/>
<path d="M4231 3035 c0 -5 6 -21 14 -35 8 -14 14 -20 14 -15 0 6 -6 21 -14 35
-8 14 -14 21 -14 15z"/>
<path d="M3215 2888 c87 -73 223 -213 265 -275 8 -11 30 -43 49 -70 43 -61
123 -211 151 -283 47 -118 71 -240 77 -389 l6 -145 30 35 29 34 -6 -161 c-3
-88 -8 -169 -12 -178 -7 -19 -90 -60 -182 -90 -29 -10 -51 -20 -49 -22 8 -8
142 33 177 55 19 11 39 21 43 21 10 0 -1 -60 -14 -76 -14 -18 -170 -92 -241
-114 -77 -25 -77 -24 -10 -103 20 -25 57 -70 82 -102 24 -31 53 -61 63 -66 32
-18 264 23 417 72 76 25 224 100 266 135 24 21 20 20 -31 -7 -135 -72 -190
-97 -204 -91 -9 4 -12 1 -7 -7 5 -8 3 -11 -5 -10 -8 1 -27 -3 -44 -10 -16 -7
-41 -13 -56 -14 -15 -1 -25 -6 -22 -11 4 -5 -6 -6 -21 -2 -16 4 -25 3 -22 -2
6 -10 -152 -36 -216 -36 -21 0 -38 -5 -38 -11 0 -5 -7 -1 -16 10 -8 11 -24 31
-35 43 -11 13 -18 30 -15 38 3 9 1 12 -4 9 -6 -3 -10 -1 -10 5 0 6 -3 9 -7 7
-5 -3 -14 1 -21 9 -7 8 -10 14 -7 14 3 0 -8 15 -25 32 -66 69 -66 63 -2 82 31
10 66 22 77 26 11 4 24 8 29 8 5 0 12 4 15 9 9 12 92 55 97 50 3 -2 -1 -17 -7
-33 -7 -16 -11 -33 -10 -39 1 -5 -5 -14 -14 -21 -14 -10 -13 -12 4 -17 13 -3
21 1 24 15 4 13 10 17 18 12 7 -4 10 -3 6 4 -4 5 7 22 24 36 17 14 28 26 25
26 -3 0 2 9 11 19 9 11 21 17 27 14 6 -3 8 -3 4 2 -6 6 33 68 53 85 3 3 11 15
18 28 7 12 16 20 22 17 5 -4 9 1 9 9 0 17 34 78 41 73 2 -1 3 0 2 1 -2 6 37
96 45 102 7 5 24 47 61 150 9 25 19 46 23 48 4 2 4 10 1 18 -3 8 -1 20 5 27 6
7 23 80 38 162 29 165 38 392 19 515 -9 58 -11 39 -16 -165 -4 -126 -12 -264
-19 -305 -35 -216 -124 -444 -245 -630 -53 -82 -155 -213 -161 -207 -3 2 3 24
11 48 29 82 66 328 59 394 -2 22 -6 56 -8 77 -4 37 23 95 38 81 4 -4 4 1 0 11
-5 14 -4 17 5 12 6 -4 10 -4 9 1 -3 13 25 83 34 83 4 0 7 3 6 8 -3 11 66 217
74 220 4 2 5 9 2 17 -3 7 2 55 12 106 14 79 16 125 10 284 -8 210 -17 296 -28
256 -8 -28 -2 -226 7 -241 3 -5 4 -14 1 -19 -3 -5 -8 -62 -10 -127 -3 -72 -15
-166 -30 -239 -26 -118 -78 -273 -91 -267 -4 2 -9 1 -12 -2 -4 -3 -2 -6 4 -6
6 0 -3 -27 -19 -60 -17 -33 -35 -60 -40 -60 -5 0 -7 -4 -3 -9 3 -5 -1 -15 -8
-23 -7 -7 -14 -17 -14 -21 -1 -5 -3 -11 -6 -13 -2 -3 -7 71 -10 163 -5 178
-21 253 -83 391 -14 29 -22 57 -19 62 3 4 -2 11 -10 14 -8 3 -14 9 -13 14 3 8
-25 49 -143 211 -86 118 -287 312 -322 311 -7 -1 11 -19 38 -42z"/>
<path d="M1722 2888 c-48 -78 -88 -264 -107 -498 -9 -105 25 -360 57 -427 6
-12 11 -35 12 -51 1 -17 4 -28 9 -25 6 4 11 -15 10 -44 -1 -7 3 -10 8 -7 5 2
11 -7 15 -22 4 -15 12 -38 19 -51 9 -16 9 -39 3 -80 -6 -32 -8 -114 -5 -183
l5 -125 -38 80 c-178 366 -232 710 -175 1110 l6 40 -15 -27 c-9 -14 -20 -57
-25 -95 -11 -79 -17 -380 -7 -390 11 -11 7 -68 -6 -83 -11 -12 -10 -12 5 -1
15 12 17 10 17 -16 0 -89 120 -467 153 -481 4 -2 4 -8 1 -14 -4 -6 -2 -13 4
-17 6 -3 12 -13 14 -21 2 -8 11 -23 20 -34 10 -10 15 -23 12 -28 -3 -4 -1 -8
4 -8 5 0 15 -12 23 -27 13 -27 28 -43 39 -43 4 0 4 16 2 35 l-4 35 30 -17 c17
-10 28 -21 26 -25 -3 -4 2 -5 10 -2 9 3 16 2 16 -4 0 -5 20 -19 45 -31 28 -13
43 -26 39 -33 -5 -7 -3 -8 5 -3 14 8 111 -33 111 -47 0 -5 4 -7 8 -4 5 3 21
-2 36 -10 16 -7 36 -14 45 -14 9 0 -40 28 -109 63 -122 61 -212 116 -226 138
-4 6 0 15 7 20 12 7 12 9 0 9 -8 0 -12 2 -9 6 3 3 45 -9 94 -25 48 -17 89 -29
91 -27 2 2 -41 22 -94 46 -153 66 -143 55 -143 165 0 51 5 106 10 121 7 18 7
30 -1 40 -6 7 -8 18 -5 23 4 5 2 12 -3 15 -5 4 -21 41 -35 84 -24 75 -30 98
-41 172 -3 19 -11 50 -17 69 -11 36 -27 251 -18 251 3 0 3 34 2 77 -3 49 1 85
9 100 11 20 11 26 -1 33 -11 7 -11 12 -2 23 7 7 10 16 7 19 -9 8 32 172 59
238 14 33 23 60 21 60 -2 0 -12 -15 -23 -32z"/>
<path d="M3128 2853 c-52 -118 -61 -139 -84 -208 -13 -38 -24 -78 -24 -88 0
-10 -7 -20 -16 -24 -11 -4 -12 -8 -4 -13 9 -5 6 -28 -9 -86 -33 -127 -43 -217
-48 -424 -2 -107 -7 -197 -10 -200 -3 -3 -3 1 2 9 5 9 4 12 -3 7 -13 -8 -35
28 -24 39 4 5 2 5 -5 2 -15 -9 -77 69 -67 84 4 7 3 10 -2 7 -37 -21 -225 319
-295 535 -36 111 -69 271 -69 340 0 15 -5 27 -11 27 -15 0 -62 -33 -133 -94
-57 -49 -242 -261 -265 -305 -7 -12 -17 -19 -24 -15 -7 4 -9 4 -5 -1 5 -5 -13
-47 -39 -94 -46 -84 -86 -161 -88 -171 -1 -3 -5 -12 -8 -20 -38 -90 -87 -289
-87 -353 0 -54 -11 -97 -23 -90 -6 4 -1 -8 12 -25 12 -18 23 -32 24 -32 1 0 3
37 5 83 9 246 119 525 316 797 64 89 141 169 240 253 l60 49 18 -108 c42 -252
130 -474 271 -684 52 -78 157 -208 199 -248 l25 -23 6 193 c9 308 62 574 169
847 35 90 33 115 -4 34z"/>
<path d="M1332 2875 c-17 -37 -14 -45 4 -12 9 16 14 31 11 33 -2 2 -9 -7 -15
-21z"/>
<path d="M1296 2785 c-9 -26 -7 -32 5 -12 6 10 9 21 6 23 -2 3 -7 -2 -11 -11z"/>
<path d="M4330 2795 c0 -5 5 -17 10 -25 5 -8 10 -10 10 -5 0 6 -5 17 -10 25
-5 8 -10 11 -10 5z"/>
<path d="M4381 2660 c0 -8 4 -22 9 -30 12 -18 12 -2 0 25 -6 13 -9 15 -9 5z"/>
<path d="M4431 2505 c1 -19 18 -51 18 -35 0 8 -4 22 -9 30 -5 8 -9 11 -9 5z"/>
<path d="M4461 2404 c0 -11 3 -14 6 -6 3 7 2 16 -1 19 -3 4 -6 -2 -5 -13z"/>
<path d="M4472 2365 c0 -11 3 -29 8 -40 11 -25 11 1 0 35 -6 20 -8 21 -8 5z"/>
<path d="M2124 2335 c-64 -30 -128 -99 -162 -173 -54 -119 -25 -271 71 -370
63 -65 128 -92 218 -92 92 0 160 31 226 104 73 82 104 189 83 290 -10 50 -13
55 -24 40 -20 -27 -72 -22 -104 9 -29 30 -35 84 -13 125 11 22 13 22 36 5 13
-10 36 -39 51 -65 15 -26 30 -46 32 -43 9 8 -48 93 -80 120 -93 78 -232 99
-334 50z m-56 -177 c3 -28 -20 -53 -43 -44 -21 8 -19 53 3 65 24 15 37 8 40
-21z m476 -171 c-4 -190 -225 -332 -400 -257 -80 35 -121 75 -160 157 -35 73
-36 77 -19 90 11 7 33 13 51 13 17 0 56 5 85 11 30 6 132 14 227 18 108 5 177
12 185 20 21 21 32 4 31 -52z"/>
<path d="M3244 2334 c-70 -37 -122 -90 -155 -159 -25 -51 -29 -72 -29 -142 0
-100 29 -176 93 -241 70 -72 107 -87 217 -87 84 0 100 3 136 25 93 57 145 123
169 217 19 71 19 103 1 170 -27 102 -82 170 -171 214 -50 24 -72 29 -136 29
-62 0 -85 -5 -125 -26z m358 -91 c29 -35 58 -95 61 -126 2 -29 -1 -32 -40 -41
-86 -18 -116 39 -73 138 23 51 30 54 52 29z m-398 -107 c-4 -11 -15 -16 -33
-14 -34 4 -40 35 -9 47 28 11 52 -7 42 -33z m360 -120 c52 -12 62 -12 83 1 14
10 23 11 23 4 0 -6 -5 -11 -11 -11 -8 0 -7 -5 1 -15 16 -20 0 -79 -37 -139
-137 -219 -446 -184 -532 59 -17 49 -21 69 -13 77 36 36 368 52 486 24z"/>
<path d="M4252 2340 c0 -14 2 -19 5 -12 2 6 2 18 0 25 -3 6 -5 1 -5 -13z"/>
<path d="M2932 2290 c0 -14 2 -19 5 -12 2 6 2 18 0 25 -3 6 -5 1 -5 -13z"/>
<path d="M4491 2284 c0 -11 3 -14 6 -6 3 7 2 16 -1 19 -3 4 -6 -2 -5 -13z"/>
<path d="M3730 2271 c0 -6 4 -13 10 -16 6 -3 7 1 4 9 -7 18 -14 21 -14 7z"/>
<path d="M4501 2234 c0 -11 3 -14 6 -6 3 7 2 16 -1 19 -3 4 -6 -2 -5 -13z"/>
<path d="M4511 2200 c0 -8 6 -42 13 -75 8 -33 14 -49 15 -35 0 14 -6 48 -13
75 -8 28 -14 43 -15 35z"/>
<path d="M1105 2120 c-4 -17 -5 -34 -2 -36 2 -3 7 10 11 27 8 42 0 50 -9 9z"/>
<path d="M2792 2070 c0 -19 2 -27 5 -17 2 9 2 25 0 35 -3 9 -5 1 -5 -18z"/>
<path d="M1750 2081 c0 -6 4 -13 10 -16 6 -3 7 1 4 9 -7 18 -14 21 -14 7z"/>
<path d="M4542 2040 c0 -14 2 -19 5 -12 2 6 2 18 0 25 -3 6 -5 1 -5 -13z"/>
<path d="M1622 2000 c0 -19 2 -27 5 -17 2 9 2 25 0 35 -3 9 -5 1 -5 -18z"/>
<path d="M4552 1980 c0 -14 2 -19 5 -12 2 6 2 18 0 25 -3 6 -5 1 -5 -13z"/>
<path d="M1072 1920 c0 -14 2 -19 5 -12 2 6 2 18 0 25 -3 6 -5 1 -5 -13z"/>
<path d="M1332 1900 c0 -14 2 -19 5 -12 2 6 2 18 0 25 -3 6 -5 1 -5 -13z"/>
<path d="M4562 1895 c0 -16 2 -22 5 -12 2 9 2 23 0 30 -3 6 -5 -1 -5 -18z"/>
<path d="M1052 1804 c-7 -50 -12 -104 -11 -120 1 -16 7 16 15 71 8 55 13 109
11 120 -1 11 -8 -21 -15 -71z"/>
<path d="M4572 1810 c0 -19 2 -27 5 -17 2 9 2 25 0 35 -3 9 -5 1 -5 -18z"/>
<path d="M4581 1714 c0 -11 3 -14 6 -6 3 7 2 16 -1 19 -3 4 -6 -2 -5 -13z"/>
<path d="M1028 1543 c-2 -54 -1 -107 3 -118 4 -11 8 33 8 98 1 64 -1 117 -3
117 -2 0 -6 -44 -8 -97z"/>
<path d="M3025 1629 c-75 -10 -389 -14 -431 -5 -41 9 -77 -20 -114 -94 -38
-75 -81 -270 -60 -270 9 0 13 17 24 105 7 50 54 161 84 200 l24 30 246 6 c136
3 256 8 267 10 35 7 87 -148 101 -298 9 -110 20 -88 13 26 -8 112 -29 196 -66
258 -14 24 -26 42 -26 42 -1 -1 -29 -5 -62 -10z"/>
<path d="M4591 1604 c0 -11 3 -14 6 -6 3 7 2 16 -1 19 -3 4 -6 -2 -5 -13z"/>
<path d="M4341 1534 c0 -11 3 -14 6 -6 3 7 2 16 -1 19 -3 4 -6 -2 -5 -13z"/>
<path d="M4603 1485 c0 -33 2 -45 4 -27 2 18 2 45 0 60 -2 15 -4 0 -4 -33z"/>
<path d="M1071 1360 c34 -46 82 -96 134 -140 17 -14 -2 9 -42 50 -39 41 -84
89 -98 105 -17 19 -15 13 6 -15z"/>
<path d="M4545 1343 c-31 -37 -37 -47 -16 -28 31 28 77 85 69 85 -2 0 -26 -26
-53 -57z"/>
<path d="M4435 1233 c-43 -39 -44 -41 -9 -15 37 28 72 63 63 62 -2 -1 -26 -21
-54 -47z"/>
<path d="M1264 1171 c23 -26 180 -105 266 -135 95 -32 315 -76 385 -76 l53 0
91 109 c50 60 91 112 91 115 0 14 -26 -1 -41 -24 -9 -14 -32 -42 -51 -63 -19
-20 -33 -37 -31 -37 3 0 -10 -18 -27 -40 -29 -36 -36 -40 -78 -40 -74 0 -182
12 -177 20 2 3 -10 4 -27 2 -23 -4 -29 -1 -23 8 5 9 2 10 -13 6 -37 -12 -271
70 -254 89 4 5 1 5 -5 1 -14 -8 -57 17 -47 26 3 3 -1 6 -8 5 -35 -1 -49 4 -42
16 4 6 4 9 -1 5 -9 -9 -37 11 -31 21 2 3 -7 7 -21 7 -22 2 -23 1 -9 -15z"/>
</g>
</svg>
